<svg xmlns="http://www.w3.org/2000/svg" fill="none" viewBox="295.2 355.2 609.6 609.6" style="max-height: 500px" width="609.6" height="609.6"><path d="M40 0h1120a40 40 0 0 1 40 40v1120a40 40 0 0 1-40 40H40a40 40 0 0 1-40-40V40A40 40 0 0 1 40 0" fill="url(#g1)"/><path fill="url(#g2)" opacity=".6" d="M470 300a220 220 0 0 1-220 220A220 220 0 0 1 30 300a220 220 0 0 1 440 0m770 120a260 260 0 0 1-260 260 260 260 0 0 1-260-260 260 260 0 0 1 520 0M820 980a220 220 0 0 1-220 220 220 220 0 0 1-220-220 220 220 0 0 1 440 0"/><path d="M324 360h552a24 24 0 0 1 24 24v552a24 24 0 0 1-24 24H324a24 24 0 0 1-24-24V384a24 24 0 0 1 24-24z" stroke-width="4" stroke="#1f2937" fill="#0b1220"/><path d="M396 440h408a16 16 0 0 1 16 16v348a16 16 0 0 1-16 16H396a16 16 0 0 1-16-16V456a16 16 0 0 1 16-16z" stroke="#1f2937" fill="#111827"/><path d="M386 860h268a6 6 0 0 1 6 6v16a6 6 0 0 1-6 6H386a6 6 0 0 1-6-6v-16a6 6 0 0 1 6-6m0 40h168a6 6 0 0 1 6 6v10a6 6 0 0 1-6 6H386a6 6 0 0 1-6-6v-10a6 6 0 0 1 6-6" fill="#1f2937"/><path d="M690 860h120a10 10 0 0 1 10 10v20a10 10 0 0 1-10 10H690a10 10 0 0 1-10-10v-20a10 10 0 0 1 10-10" fill="#065f46"/><g font-family="Segoe UI, Roboto, Arial" text-anchor="middle"><text opacity=".9" font-size="44" fill="#e5e7eb" y="50%" x="50%">Imagen de Producto</text><text opacity=".9" font-size="24" fill="#9ca3af" y="56%" x="50%">RUSARFI</text></g></svg>