<?xml version="1.0" encoding="UTF-8"?>
<svg xmlns="http://www.w3.org/2000/svg" width="1920" height="540" viewBox="0 0 1920 540" fill="none">
  <defs>
    <linearGradient id="bg" x1="0" y1="0" x2="1" y2="1">
      <stop offset="0%" stop-color="#0f172a"/>
      <stop offset="100%" stop-color="#0b1220"/>
    </linearGradient>
    <radialGradient id="glow1" cx="0" cy="0" r="1" gradientUnits="userSpaceOnUse" gradientTransform="translate(320 100) rotate(45) scale(480 240)">
      <stop stop-color="#22d3ee" stop-opacity="0.25"/>
      <stop offset="1" stop-color="#22d3ee" stop-opacity="0"/>
    </radialGradient>
    <radialGradient id="glow2" cx="0" cy="0" r="1" gradientUnits="userSpaceOnUse" gradientTransform="translate(1640 320) rotate(45) scale(520 280)">
      <stop stop-color="#a78bfa" stop-opacity="0.25"/>
      <stop offset="1" stop-color="#a78bfa" stop-opacity="0"/>
    </radialGradient>
    <linearGradient id="accent" x1="0" y1="0" x2="1" y2="0">
      <stop offset="0%" stop-color="#22d3ee"/>
      <stop offset="100%" stop-color="#06b6d4"/>
    </linearGradient>
  </defs>

  <rect width="1920" height="540" rx="0" fill="url(#bg)"/>
  <rect width="1920" height="540" fill="url(#glow1)"/>
  <rect width="1920" height="540" fill="url(#glow2)"/>

  <g transform="translate(140,130)">
    <text x="0" y="0" fill="#e5e7eb" font-family="Segoe UI, Roboto, Arial" font-size="64" font-weight="700">RUSARFI</text>
    <text x="0" y="52" fill="#cbd5e1" font-family="Segoe UI, Roboto, Arial" font-size="22">Catálogo de ropa para todos los estilos</text>
    <g transform="translate(0,96)">
      <rect x="0" y="-36" width="320" height="48" rx="12" fill="#0b1220" stroke="#1f2937"/>
      <rect x="0" y="-36" width="160" height="48" rx="12" fill="url(#accent)"/>
      <text x="22" y="-4" fill="#0b1220" font-family="Segoe UI, Roboto, Arial" font-size="18" font-weight="700">Comprar ahora</text>
      <text x="188" y="-6" fill="#94a3b8" font-family="Segoe UI, Roboto, Arial" font-size="16">Nuevas colecciones</text>
    </g>
  </g>

  <g transform="translate(1280,40)" opacity="0.35">
    <rect x="0" y="0" width="560" height="400" rx="28" fill="#0b1220" stroke="#1f2937"/>
    <rect x="80" y="70" width="400" height="240" rx="18" fill="#111827" stroke="#1f2937"/>
    <rect x="80" y="330" width="280" height="18" rx="6" fill="#1f2937"/>
    <rect x="80" y="360" width="180" height="14" rx="6" fill="#1f2937"/>
    <rect x="380" y="324" width="100" height="36" rx="10" fill="#065f46"/>
  </g>
</svg>
